<svg width="25" height="24" viewBox="0 0 25 24" fill="none" xmlns="http://www.w3.org/2000/svg">
<path d="M9.45557 21.9477C10.7363 21.9477 11.298 21.0602 12.8933 21.0602C14.4887 21.0602 14.8706 21.914 16.2862 21.914C17.7017 21.914 18.6117 20.5883 19.4993 19.2851C20.4879 17.7909 20.8924 16.3304 20.9261 16.263C20.8362 16.2406 18.1624 15.1059 18.1624 11.949C18.1624 9.20773 20.2745 7.97193 20.3868 7.88205C18.9937 5.81489 16.8704 5.76995 16.2974 5.76995C14.7358 5.76995 13.4551 6.74736 12.6462 6.74736C11.7811 6.74736 10.6352 5.82612 9.27582 5.82612C6.69187 5.82612 4.07422 8.0281 4.07422 12.1737C4.07422 14.7464 5.05163 17.4764 6.24249 19.2402C7.26483 20.7344 8.1636 21.959 9.45557 21.959V21.9477ZM12.7473 5.52279C13.6798 5.52279 14.8594 4.87119 15.5559 4.00613C16.1851 3.21971 16.6457 2.11872 16.6457 1.01773C16.6457 0.87168 16.6345 0.714396 16.6007 0.602051C15.5559 0.646989 14.3089 1.32106 13.5562 2.23106C12.9608 2.92761 12.4215 4.00613 12.4215 5.11835C12.4215 5.27563 12.444 5.44415 12.4664 5.50032C12.5338 5.51156 12.635 5.52279 12.7473 5.52279Z" fill="white"/>
</svg>
