<svg width="25" height="24" viewBox="0 0 25 24" fill="none" xmlns="http://www.w3.org/2000/svg">
<path fill-rule="evenodd" clip-rule="evenodd" d="M20.1801 12.0203C20.1801 11.4531 20.1295 10.9074 20.0343 10.3838H12.5V13.4781H16.8058C16.6201 14.4781 16.0565 15.3261 15.2094 15.8932V17.9004H17.7943C19.3072 16.5074 20.1801 14.4567 20.1801 12.0203Z" fill="#3D82F0"/>
<path fill-rule="evenodd" clip-rule="evenodd" d="M12.5 20.0006C14.6601 20.0006 16.4708 19.2842 17.7943 18.0628L15.2094 16.0548C14.493 16.5348 13.5765 16.8183 12.5 16.8183C10.4164 16.8183 8.65286 15.4112 8.02352 13.5205H5.35059V15.5934C6.66705 18.2077 9.37287 20.0006 12.5 20.0006Z" fill="#31A752"/>
<path fill-rule="evenodd" clip-rule="evenodd" d="M8.02361 13.5202C7.86361 13.0402 7.77294 12.5273 7.77294 12.0002C7.77294 11.4731 7.86361 10.9602 8.02361 10.4801V8.40723H5.35068C4.80934 9.48724 4.5 10.7095 4.5 12.0002C4.5 13.2909 4.80934 14.5131 5.35068 15.5931L8.02361 13.5202Z" fill="#F9BA00"/>
<path fill-rule="evenodd" clip-rule="evenodd" d="M12.5 7.18227C13.6743 7.18227 14.7294 7.58584 15.5579 8.37874L17.853 6.08448C16.4672 4.7929 14.6565 4 12.5 4C9.37287 4 6.66705 5.79292 5.35059 8.40807L8.02352 10.4801C8.65286 8.58941 10.4164 7.18227 12.5 7.18227Z" fill="#E64234"/>
</svg>
